<svg width="168" height="40" viewBox="0 0 168 40" fill="none" xmlns="http://www.w3.org/2000/svg">
<path fill-rule="evenodd" clip-rule="evenodd" d="M14.6031 3.92177L21.5546 40L19.156 15.8523L31.0104 15.0786L30.9883 11.037L35.6666 0L31.2032 7.35158L14.6031 3.92177Z" fill="white"/>
<path fill-rule="evenodd" clip-rule="evenodd" d="M33.5588 21.8981L35.6666 0.00286865L32.0965 16.2445L24.0855 16.6718L24.7268 25.0396L21.5546 40L26.4796 23.6836L33.5588 21.8981Z" fill="white"/>
<path fill-rule="evenodd" clip-rule="evenodd" d="M34.9522 27.0647L35.1764 22.79L28.6494 24.3256L28.6363 29.1499L21.5546 40L30.4103 28.7066L34.9522 27.0647Z" fill="white"/>
<path fill-rule="evenodd" clip-rule="evenodd" d="M36.1412 25.1067L42.2034 23.172L42.8198 18.0471L36.3255 18.9038L36.1412 25.1067Z" fill="white"/>
<path fill-rule="evenodd" clip-rule="evenodd" d="M38.7388 17.7899L43.2271 17.2104L43.8729 13.0073L40.5728 12.8547L35.6666 0L39.1101 12.6638L38.7388 17.7899Z" fill="white"/>
<path fill-rule="evenodd" clip-rule="evenodd" d="M45.006 12.3885L45.5191 8.50112L41.6206 7.39943L35.6666 0L41.5826 9.17547L41.4102 12.0381L45.006 12.3885Z" fill="white"/>
<path d="M67.3004 29.2763C67.4694 29.518 67.3489 29.7355 67.0353 29.7355H65.2486C64.7174 29.7355 64.2826 29.2524 64.0897 28.9623L60.3235 23.4032H55.5433V29.3248C55.5433 29.5907 55.3985 29.7355 55.157 29.7355H53.2015C52.96 29.7355 52.8152 29.5907 52.8152 29.3248V10.7864C52.8152 10.5688 52.96 10.3996 53.2015 10.3996H60.6373C64.8619 10.3996 67.1314 14.0009 67.1314 16.9012C67.1314 19.3182 65.6831 22.0255 62.9548 23.0162L67.3004 29.2763ZM55.544 13.0338V20.7682H60.3241C63.0523 20.7682 64.4042 18.8104 64.4042 16.8526C64.4042 14.919 63.0281 13.0336 60.3241 13.0336L55.544 13.0338ZM79.2998 24.7323C80.1687 24.7323 80.7721 24.2972 80.7721 23.2821C80.7721 20.3093 78.4785 17.6021 74.9538 17.6021C71.5981 17.6021 68.9665 20.2608 68.9665 23.7413C68.9665 27.3666 71.7187 29.8562 75.0987 29.8562C77.2474 29.8562 78.9373 28.986 79.9754 27.5842C80.1205 27.3908 80.0722 27.2458 79.9276 27.0525L79.4689 26.4482C79.2758 26.2067 79.0826 26.2307 78.841 26.3757C78.0687 27.0041 76.7891 27.5361 75.3888 27.5361C73.4091 27.5361 72.0088 26.3276 71.7433 24.7324L79.2998 24.7323ZM71.7431 22.6778C71.8397 21.5176 72.9261 20.0191 74.9057 20.0191C76.9095 20.0191 77.9476 21.5418 78.02 22.6778H71.7431ZM93.5681 17.7714L91.492 17.7711C91.2747 17.7711 91.2023 17.892 91.1057 18.1339L87.8223 25.3847L84.5149 18.1339C84.4183 17.892 84.3459 17.7711 84.1286 17.7711H81.9558C81.7385 17.7711 81.618 17.892 81.7146 18.1339L87.2916 29.5662C87.364 29.7353 87.5571 29.8562 87.702 29.8562H87.9434C88.0883 29.8562 88.2812 29.7354 88.3536 29.5662L93.8823 18.1339C94.0028 17.9164 93.7854 17.7714 93.5681 17.7714ZM101.173 29.9047C104.553 29.9047 107.353 27.222 107.353 23.7658C107.353 20.2369 104.553 17.6024 101.173 17.6024C97.7927 17.6024 94.9922 20.237 94.9922 23.7658C94.9922 27.222 97.7927 29.9047 101.173 29.9047ZM101.173 27.4396C99.0965 27.4396 97.5513 25.7235 97.5513 23.7899C97.5513 21.7838 99.0963 20.0677 101.173 20.0677C103.249 20.0677 104.794 21.7838 104.794 23.7899C104.794 25.7235 103.249 27.4396 101.173 27.4396ZM112.592 10.3999H110.733C110.492 10.3999 110.347 10.5691 110.347 10.7866V28.7689C110.347 29.3248 110.685 29.7355 111.289 29.7355H112.592C112.834 29.7355 112.979 29.5907 112.979 29.3248V10.7864C112.979 10.5689 112.81 10.3999 112.592 10.3999ZM121.839 29.9047C125.219 29.9047 128.019 27.222 128.019 23.7658C128.019 20.2369 125.219 17.6024 121.839 17.6024C118.459 17.6024 115.658 20.237 115.658 23.7658C115.658 27.222 118.459 29.9047 121.839 29.9047ZM121.839 27.4396C119.762 27.4396 118.217 25.7235 118.217 23.7899C118.217 21.7838 119.762 20.0677 121.839 20.0677C123.915 20.0677 125.46 21.7838 125.46 23.7899C125.46 25.7235 123.915 27.4396 121.839 27.4396ZM141.298 17.7714C141.515 17.7714 141.66 17.9408 141.66 18.1825V29.3491C141.66 29.5664 141.515 29.7356 141.322 29.7356H139.825C139.415 29.7356 139.077 29.1315 139.052 28.7207V28.4548C138.111 29.1799 136.831 29.8806 135.19 29.8806C132.703 29.8806 130.216 28.3098 130.216 25.2885V19.9468C130.216 19.2942 130.168 18.7867 130.096 18.2791C130.047 18.0132 130.12 17.7715 130.337 17.7715H131.906C132.51 17.7715 132.848 18.1824 132.848 18.7383V25.0467C132.848 26.6418 133.934 27.5362 135.552 27.5362C136.928 27.5362 138.063 26.7628 139.052 25.7718V18.1824C139.052 17.9407 139.197 17.7713 139.414 17.7713L141.298 17.7714ZM151.727 28.9623C151.799 29.1557 151.655 29.276 151.486 29.3969C151.075 29.6628 150.182 29.8561 149.289 29.8561C146.705 29.8561 145.764 28.5268 145.764 25.4089V20.309H144.339C144.122 20.309 143.953 20.1639 143.953 19.9222V19.5113C143.953 19.318 144.001 19.1732 144.146 19.0279C145.547 17.8919 146.657 16.7079 147.623 14.2664C147.695 14.0972 147.768 14.0005 147.888 14.0005H148.154C148.347 14.0005 148.42 14.0972 148.42 14.3148V17.771H150.955C151.172 17.771 151.365 17.9405 151.365 18.1822V19.9224C151.365 20.1399 151.172 20.3091 150.955 20.3091H148.854C148.661 20.3091 148.492 20.2849 148.395 20.2366V25.1672C148.395 26.5691 148.564 27.3668 149.747 27.3668C150.254 27.3668 150.592 27.2942 150.882 27.2217C151.172 27.1492 151.365 27.2701 151.413 27.5362L151.727 28.9623Z" fill="white"/>
</svg>
