<svg width="175" height="40" viewBox="0 0 175 40" fill="none" xmlns="http://www.w3.org/2000/svg">
<g clip-path="url(#clip0_1_2)">
<path d="M39.89 11.6503C37.9974 11.2709 35.747 11.2268 33.3325 11.2268C30.9177 11.2268 28.6673 11.2705 26.7747 11.6503C26.7747 11.6391 26.7739 11.6279 26.7739 11.617C26.7739 10.1347 27.5957 8.33672 28.906 6.97229C28.1086 6.2263 27.2748 5.11334 27.2431 3.7072C27.177 0.77741 30.0005 -0.320711 31.9168 0.0799548C31.9168 0.0799548 32.2011 1.32326 29.2974 2.00227C29.2974 2.00227 31.0489 3.1044 29.6363 3.78822C29.6363 3.78822 31.853 4.35132 30.6342 5.30586C30.6342 5.30586 30.2038 5.53727 30.3334 5.79957C31.2322 5.23447 32.2517 4.88433 33.3321 4.88433C34.3769 4.88433 35.3651 5.21201 36.2423 5.74502C36.2948 5.50599 35.9218 5.30545 35.9218 5.30545C34.7034 4.35092 36.9201 3.78782 36.9201 3.78782C35.5075 3.104 37.259 2.00187 37.259 2.00187C34.3553 1.32286 34.6396 0.0795537 34.6396 0.0795537C36.5551 -0.321112 39.3786 0.777009 39.3128 3.7068C39.282 5.08005 38.4858 6.17256 37.7062 6.91814C39.0465 8.28939 39.89 10.115 39.89 11.6166C39.8908 11.6279 39.89 11.6391 39.89 11.6503ZM21.461 12.4569C16.6105 11.2473 16.0029 6.8271 21.4048 5.21842C17.9167 4.01683 11.3348 7.72669 19.0445 13.9111L16.1384 14.3347C16.1384 14.3347 18.9772 14.4831 22.0947 15.3758C21.6126 16.1856 21.3037 17.1939 21.2007 18.4508C19.8956 18.5699 18.4221 19.1595 17.4888 20.9503C15.4919 24.7837 18.5159 26.8548 18.4193 29.5728C18.325 32.2223 12.8813 32.8259 12.8813 32.8259C12.8813 32.8259 20.9677 32.967 20.9677 30.0998C20.9677 27.6461 17.6019 22.9243 21.3226 21.5803C21.7562 24.604 23.0448 27.8262 24.8969 30.4291C26.0901 34.55 23.4466 34.096 26.5886 37.8969C26.2449 36.5662 26.5886 36.2726 26.5886 36.2726C27.9306 38.4131 31.9573 40.1072 31.9573 40.1072C27.9318 37.3102 27.0326 34.6744 27.404 33.2333C28.9858 34.6114 30.785 35.5238 32.7017 35.6895V12.1063C29.4041 12.1196 26.4534 12.2664 24.3615 13.318C23.4827 13.014 22.5118 12.7184 21.461 12.4569ZM47.4505 29.5724C47.3542 26.8544 50.3779 24.7833 48.3802 20.9499C47.6354 19.5205 46.5469 18.8563 45.4744 18.586C45.3818 17.248 45.0613 16.1856 44.5504 15.3417C47.6205 14.4787 50.3879 14.3339 50.3879 14.3339L47.4818 13.9103C55.1915 7.72589 48.61 4.01602 45.1215 5.21762C50.5235 6.8267 49.9159 11.2465 45.0649 12.4561C44.0474 12.7099 43.1033 12.9955 42.2467 13.2891C40.1575 12.2628 37.2301 12.1188 33.963 12.1055V35.6891C35.988 35.5134 37.8826 34.5047 39.5278 32.9935C40.0717 34.368 39.3116 37.1474 35.0519 40.1072C35.0519 40.1072 39.079 38.4131 40.4214 36.2726C40.4214 36.2726 40.7651 36.5658 40.4214 37.8969C43.8092 33.7976 40.4703 34.6471 42.4684 29.3719C43.8754 27.093 44.8692 24.4644 45.2851 21.9485C47.7677 23.6386 44.9013 27.835 44.9013 30.0994C44.9013 32.9662 52.9876 32.8255 52.9876 32.8255C52.9876 32.8255 47.5443 32.2223 47.4505 29.5724Z" fill="white"/>
<path d="M56.9493 31.4762V10.3196H61.329C64.4962 10.3196 66.7978 10.5764 68.234 11.09C70.2789 11.8033 71.8791 13.0469 73.0347 14.8207C74.1903 16.5945 74.768 18.7083 74.768 21.1621C74.768 23.2736 74.3091 25.1377 73.3913 26.7546C72.4735 28.3714 71.2846 29.5627 69.8247 30.3283C68.3648 31.094 66.3175 31.4768 63.683 31.4768L56.9493 31.4762ZM58.9752 29.4646H61.4148C64.3347 29.4646 66.3652 29.2839 67.5066 28.9225C69.0949 28.4089 70.3456 27.4792 71.2587 26.1334C72.1717 24.7876 72.6282 23.1398 72.6282 21.19C72.6282 19.1452 72.136 17.3999 71.1517 15.9542C70.1673 14.5086 68.7906 13.5194 67.0216 12.9867C65.69 12.5778 63.5073 12.3733 60.4733 12.3733H58.9753L58.9752 29.4646ZM77.7499 24.4V22.5168C77.9021 21.5752 78.1209 20.8095 78.4062 20.2199C79.072 18.584 79.966 17.3856 81.0883 16.6247C82.2106 15.8638 83.1427 15.4834 83.8846 15.4834C84.4362 15.4834 85.0259 15.6641 85.6536 16.0255L84.6122 17.7089C83.7277 17.3855 82.8503 17.6471 81.98 18.4936C81.1098 19.34 80.5082 20.2626 80.1752 21.2612C79.9279 22.1457 79.8043 23.8054 79.8043 26.2402V31.533H77.7499L77.7499 24.4ZM94.0423 31.5333L97.0524 10.3767H97.3948L105.998 27.7247L114.5 10.3767H114.843L117.896 31.5333H115.799L113.73 16.397L106.254 31.5333H105.712L98.1368 16.2962L96.0824 31.5333H94.0423ZM129.109 15.1409C131.515 15.1409 133.513 16.0111 135.101 17.7517C136.566 19.34 137.298 21.2279 137.298 23.4154C137.317 28.8177 137.317 31.5616 137.298 31.6472H135.172V28.0949C134.06 30.1683 132.039 31.3286 129.109 31.5759C126.712 31.5759 124.756 30.7604 123.239 29.1292C121.722 27.4981 120.963 25.5935 120.963 23.4156C120.963 21.247 121.681 19.3639 123.117 17.766C124.706 16.016 126.703 15.1409 129.109 15.1409ZM129.109 17.1102C127.445 17.1102 126.013 17.7284 124.815 18.9648C123.617 20.2012 123.017 21.6945 123.017 23.4445C123.017 24.5763 123.324 25.6653 123.938 26.7115C124.551 27.7577 125.59 28.6422 127.055 29.3651C130.726 30.183 133.337 28.5138 134.887 24.3575C134.973 23.026 134.83 21.7515 134.459 20.5341C134.193 19.9825 133.827 19.4594 133.361 18.9648C132.191 17.7284 130.774 17.1102 129.109 17.1102ZM155.674 28.5231C156.53 27.0964 157.044 25.6935 157.215 24.3144C157.215 14.4135 157.215 9.47255 157.215 9.49157H155.218V18.2227C154.371 17.186 153.425 16.4132 152.378 15.9044C151.332 15.3956 150.186 15.1412 148.94 15.1412C146.734 15.1412 144.846 15.9448 143.276 17.5522C141.707 19.1595 140.923 21.1093 140.923 23.4014C140.923 25.6555 141.712 27.5815 143.291 29.1794C144.87 30.7772 146.772 31.5761 148.997 31.5761C150.272 31.5761 151.468 31.3312 152.585 30.8414C153.703 30.3516 154.732 29.5788 155.674 28.5231ZM149.168 29.6501C148.036 29.6501 146.997 29.3719 146.051 28.8155C145.104 28.2592 144.351 27.4864 143.789 26.4973C143.228 25.5081 142.948 24.4524 142.948 23.3301C142.948 22.2268 143.231 21.1687 143.796 20.1558C144.362 19.1428 145.123 18.3582 146.079 17.8018C147.035 17.2455 148.055 16.9673 149.139 16.9672C150.242 16.9672 151.289 17.2454 152.278 17.8018C153.267 18.3582 154.028 19.1143 154.56 20.0702C155.093 21.026 155.359 22.0936 155.359 23.273C155.359 25.0896 154.76 26.6066 153.562 27.824C152.363 29.0414 150.899 29.6501 149.168 29.6501Z" fill="white"/>
</g>
<defs>
<clipPath id="clip0_1_2">
<rect width="174.915" height="40" fill="white"/>
</clipPath>
</defs>
</svg>
